<svg xmlns="http://www.w3.org/2000/svg" xmlns:svg="http://www.w3.org/2000/svg" id="svg1" width="600" height="300" version="1.1" viewBox="0 0 600 300" xml:space="preserve"><defs id="defs1"><filter id="mask-powermask-path-effect5_inverse" width="100" height="100" x="-50" y="-50" style="color-interpolation-filters:sRGB"><feColorMatrix id="mask-powermask-path-effect5_primitive1" result="fbSourceGraphic" type="saturate" values="1"/><feColorMatrix id="mask-powermask-path-effect5_primitive2" in="fbSourceGraphic" values="-1 0 0 0 1 0 -1 0 0 1 0 0 -1 0 1 0 0 0 1 0"/></filter><clipPath id="clipPath1" clipPathUnits="userSpaceOnUse"><circle style="display:inline;fill:#000;fill-opacity:1;stroke:none;stroke-width:.21372" id="circle3" cx="44.886" cy="38.249" r="22.842"/></clipPath><clipPath id="clipPath3" clipPathUnits="userSpaceOnUse"><circle style="display:inline;opacity:1;fill:#000;fill-opacity:1;stroke:none;stroke-width:2.64583;stroke-dasharray:none;stroke-opacity:1" id="circle4" cx="39.235" cy="39.029" r="25.959"/></clipPath><clipPath id="clipPath4" clipPathUnits="userSpaceOnUse"><circle style="display:inline;opacity:1;fill:#000;fill-opacity:1;stroke:none;stroke-width:.242893" id="circle5" cx="39.997" cy="39.029" r="25.959"/></clipPath><clipPath id="clipPath19" clipPathUnits="userSpaceOnUse"><g id="g20" style="display:inline"><circle style="display:inline;opacity:1;fill:#fff;fill-opacity:1;stroke:#000;stroke-width:1.323;stroke-dasharray:none;stroke-opacity:1" id="circle20" cx="39.997" cy="39.029" r="25.959"/><path style="display:inline;fill:#fff;fill-opacity:1;stroke:none;stroke-width:1.323;stroke-linecap:round;stroke-linejoin:round;stroke-dasharray:none;stroke-opacity:1" id="path20" d="M 40.972417,71.748504 65.106856,9.0738004 51.262295,8.5125342 29.653552,71.374327 Z"/></g></clipPath><filter id="mask-powermask-path-effect2_inverse" width="100" height="100" x="-50" y="-50" style="color-interpolation-filters:sRGB"><feColorMatrix id="mask-powermask-path-effect2_primitive1" result="fbSourceGraphic" type="saturate" values="1"/><feColorMatrix id="mask-powermask-path-effect2_primitive2" in="fbSourceGraphic" values="-1 0 0 0 1 0 -1 0 0 1 0 0 -1 0 1 0 0 0 1 0"/></filter><filter style="color-interpolation-filters:sRGB" id="filter15" width="1" height="1" x="0" y="0"><feColorMatrix id="feColorMatrix14" result="color1" type="hueRotate" values="50"/><feColorMatrix id="feColorMatrix15" result="color2" type="saturate" values=".16"/></filter><clipPath id="clipPath6" clipPathUnits="userSpaceOnUse"><path id="path6" fill="#1793d1" d="m 418.65593,41.52652 c -9.29195,23.22986 -15.26534,37.83149 -25.8847,60.39764 6.6371,7.30082 14.60163,15.26535 27.21212,23.89358 -13.93791,-5.30968 -23.22985,-11.28307 -29.86696,-17.25647 -13.93792,28.53955 -35.17665,68.36218 -77.65412,146.0163 33.18552,-19.91132 59.73394,-31.85811 84.29123,-36.50408 -1.32742,-4.64596 -1.99113,-9.29194 -1.99113,-14.60163 v -0.6637 c 0.66371,-21.90245 11.94678,-38.49522 25.22098,-37.16779 13.27421,0.66371 23.89358,19.24761 23.22987,41.15005 l -1.32742,11.28307 c 23.89358,4.64597 49.77828,17.25648 82.96381,35.84036 l -17.92019,-33.18551 c -8.62823,-6.63711 -17.92018,-15.26534 -36.50408,-25.221 12.61051,3.31855 21.90246,7.30082 29.20327,11.28308 C 442.54951,101.26046 437.90354,87.32254 418.65593,40.8628 Z" style="display:inline;fill:#000;fill-opacity:1;stroke-width:.663711"/></clipPath><clipPath id="clipPath7" clipPathUnits="userSpaceOnUse"><path id="path7" fill="#1793d1" d="m 418.65593,41.52652 c -9.29195,23.22986 -15.26534,37.83149 -25.8847,60.39764 6.6371,7.30082 14.60163,15.26535 27.21212,23.89358 -13.93791,-5.30968 -23.22985,-11.28307 -29.86696,-17.25647 -13.93792,28.53955 -35.17665,68.36218 -77.65412,146.0163 33.18552,-19.91132 59.73394,-31.85811 84.29123,-36.50408 -1.32742,-4.64596 -1.99113,-9.29194 -1.99113,-14.60163 v -0.6637 c 0.66371,-21.90245 11.94678,-38.49522 25.22098,-37.16779 13.27421,0.66371 23.89358,19.24761 23.22987,41.15005 l -1.32742,11.28307 c 23.89358,4.64597 49.77828,17.25648 82.96381,35.84036 l -17.92019,-33.18551 c -8.62823,-6.63711 -17.92018,-15.26534 -36.50408,-25.221 12.61051,3.31855 21.90246,7.30082 29.20327,11.28308 C 442.54951,101.26046 437.90354,87.32254 418.65593,40.8628 Z" style="display:inline;fill:#000;fill-opacity:1;stroke-width:.663711"/></clipPath><clipPath id="clipPath8" clipPathUnits="userSpaceOnUse"><path id="path9" fill="#1793d1" d="m 418.65593,41.52652 c -9.29195,23.22986 -15.26534,37.83149 -25.8847,60.39764 6.6371,7.30082 14.60163,15.26535 27.21212,23.89358 -13.93791,-5.30968 -23.22985,-11.28307 -29.86696,-17.25647 -13.93792,28.53955 -35.17665,68.36218 -77.65412,146.0163 33.18552,-19.91132 59.73394,-31.85811 84.29123,-36.50408 -1.32742,-4.64596 -1.99113,-9.29194 -1.99113,-14.60163 v -0.6637 c 0.66371,-21.90245 11.94678,-38.49522 25.22098,-37.16779 13.27421,0.66371 23.89358,19.24761 23.22987,41.15005 l -1.32742,11.28307 c 23.89358,4.64597 49.77828,17.25648 82.96381,35.84036 l -17.92019,-33.18551 c -8.62823,-6.63711 -17.92018,-15.26534 -36.50408,-25.221 12.61051,3.31855 21.90246,7.30082 29.20327,11.28308 C 442.54951,101.26046 437.90354,87.32254 418.65593,40.8628 Z" style="display:inline;fill:#000;fill-opacity:1;stroke-width:.663711"/></clipPath><clipPath id="clipPath10" clipPathUnits="userSpaceOnUse"><path id="path11" fill="#1793d1" d="m 418.65593,41.52652 c -9.29195,23.22986 -15.26534,37.83149 -25.8847,60.39764 6.6371,7.30082 14.60163,15.26535 27.21212,23.89358 -13.93791,-5.30968 -23.22985,-11.28307 -29.86696,-17.25647 -13.93792,28.53955 -35.17665,68.36218 -77.65412,146.0163 33.18552,-19.91132 59.73394,-31.85811 84.29123,-36.50408 -1.32742,-4.64596 -1.99113,-9.29194 -1.99113,-14.60163 v -0.6637 c 0.66371,-21.90245 11.94678,-38.49522 25.22098,-37.16779 13.27421,0.66371 23.89358,19.24761 23.22987,41.15005 l -1.32742,11.28307 c 23.89358,4.64597 49.77828,17.25648 82.96381,35.84036 l -17.92019,-33.18551 c -8.62823,-6.63711 -17.92018,-15.26534 -36.50408,-25.221 12.61051,3.31855 21.90246,7.30082 29.20327,11.28308 C 442.54951,101.26046 437.90354,87.32254 418.65593,40.8628 Z" style="display:inline;fill:#000;fill-opacity:1;stroke-width:.663711"/></clipPath></defs><g id="layer1"><g id="layer1-2" transform="matrix(3.7795276,0,0,3.7795276,10.090209,-6.6795538)" style="display:inline"><circle style="display:inline;opacity:1;fill:#faf4ed;fill-opacity:1;stroke:none;stroke-width:2.64583;stroke-dasharray:none;stroke-opacity:1" id="path1" cx="39.997" cy="39.029" r="25.959"/><circle style="display:inline;opacity:1;fill:#313244;fill-opacity:1;stroke:#faf4ed;stroke-width:1.32292;stroke-linecap:round;stroke-linejoin:round;stroke-dasharray:none;stroke-opacity:1" id="path23" cx="59.239" cy="65.282" r="3.979"/><path style="display:inline;opacity:1;fill:#ebbcba;fill-opacity:1;stroke:none;stroke-width:2.64583;stroke-linecap:round;stroke-linejoin:round;stroke-dasharray:none;stroke-opacity:1" id="path4" d="M 14.113556,8.1829745 56.98133,12.94242 37.386776,66.72921 7.3373035,66.366241 Z" clip-path="url(#clipPath4)"/><path style="display:inline;opacity:1;fill:#c79bf0;fill-opacity:1;stroke:none;stroke-width:2.64583;stroke-linecap:round;stroke-linejoin:round;stroke-dasharray:none;stroke-opacity:1" id="path8" d="m 38.53683,10.093324 c -4.365942,9.204371 -6.195104,15.177206 -7.207595,27.726667 -0.991944,12.294793 2.307273,27.137042 4.047673,28.491534 L 8.1586184,69.098661 11.655182,10.116831 Z" clip-path="url(#clipPath3)" transform="translate(0.76197263)"/><path style="display:inline;opacity:1;fill:#a9b1d6;fill-opacity:1;stroke:none;stroke-width:2.64583;stroke-linecap:round;stroke-linejoin:round;stroke-dasharray:none;stroke-opacity:1" id="path12" d="m 42.192726,12.318411 c -4.211383,1.986898 -14.038715,6.1886 -14.817953,16.984439 -1.04881,14.530574 8.416642,27.085895 14.90106,33.18835 l -22.176874,3.329798 -0.9709,-51.470147 z" clip-path="url(#clipPath1)" transform="matrix(1.1365005,0,0,1.1365005,-11.015826,-4.4408595)"/><path style="display:inline;fill:none;stroke:#313244;stroke-width:5.29167;stroke-linecap:round;stroke-linejoin:round;stroke-dasharray:none;stroke-opacity:1" id="path2" d="M 56.155019,14.892653 37.161315,67.306549 c 0.34522,-0.825973 6.533363,-17.660613 9.643704,-21.103821 4.780254,-5.291832 13.007552,-2.764636 13.142556,4.977296 0.04382,2.512914 -1.431223,15.998469 -1.431223,15.998469" clip-path="url(#clipPath19)" mask="none"/><circle style="display:inline;opacity:1;fill:none;fill-opacity:1;stroke:#313244;stroke-width:1.32292;stroke-dasharray:none;stroke-opacity:1" id="circle8" cx="39.997" cy="39.029" r="25.959"/></g><g id="g21" transform="translate(15.366147)"><path id="path1-2" fill="#1793d1" d="m 418.65593,41.52652 c -9.29195,23.22986 -15.26534,37.83149 -25.8847,60.39764 6.6371,7.30082 14.60163,15.26535 27.21212,23.89358 -13.93791,-5.30968 -23.22985,-11.28307 -29.86696,-17.25647 -13.93792,28.53955 -35.17665,68.36218 -77.65412,146.0163 33.18552,-19.91132 59.73394,-31.85811 84.29123,-36.50408 -1.32742,-4.64596 -1.99113,-9.29194 -1.99113,-14.60163 v -0.6637 c 0.66371,-21.90245 11.94678,-38.49522 25.22098,-37.16779 13.27421,0.66371 23.89358,19.24761 23.22987,41.15005 l -1.32742,11.28307 c 23.89358,4.64597 49.77828,17.25648 82.96381,35.84036 l -17.92019,-33.18551 c -8.62823,-6.63711 -17.92018,-15.26534 -36.50408,-25.221 12.61051,3.31855 21.90246,7.30082 29.20327,11.28308 C 442.54951,101.26046 437.90354,87.32254 418.65593,40.8628 Z" style="display:inline;fill:#313244;fill-opacity:1;stroke-width:.663711"/><path style="display:inline;opacity:1;fill:#ebbcba;fill-opacity:1;stroke:none;stroke-width:9.99999;stroke-linecap:round;stroke-linejoin:round;stroke-dasharray:none;stroke-opacity:1" id="path18" d="M 309.2552,25.453285 471.27515,43.441735 397.21699,246.7304 283.64418,245.35855 Z" clip-path="url(#clipPath8)"/><path style="display:inline;opacity:1;fill:#c79bf0;fill-opacity:1;stroke:none;stroke-width:9.99999;stroke-linecap:round;stroke-linejoin:round;stroke-dasharray:none;stroke-opacity:1" id="path19" d="m 404.44355,32.67351 c -16.5012,34.788169 -23.41457,57.362678 -27.2413,104.79371 -3.74908,46.46851 8.7204,102.56519 15.29829,107.68453 L 289.62826,255.68581 302.84361,32.762342 Z" clip-path="url(#clipPath7)"/><path style="display:inline;opacity:1;fill:#a9b1d6;fill-opacity:1;stroke:none;stroke-width:11.365;stroke-linecap:round;stroke-linejoin:round;stroke-dasharray:none;stroke-opacity:1" id="path21" d="m 395.51413,30.654091 c -18.08973,8.534584 -60.3024,26.582721 -63.64955,72.955579 -4.50511,62.41512 36.15313,116.34568 64.00652,142.55838 L 300.61179,260.47098 296.44134,39.3843 Z" clip-path="url(#clipPath6)"/></g><g id="g17" transform="translate(-4.3725668,0.65193038)" style="display:inline"><path style="fill:none;fill-opacity:1;stroke:#313244;stroke-width:8.53717;stroke-linecap:round;stroke-linejoin:round;stroke-dasharray:none;stroke-opacity:1" id="path79" d="M 320.02964,154.32485 V 124.23211"/><path style="fill:none;fill-opacity:1;stroke:#313244;stroke-width:8.53717;stroke-linecap:round;stroke-linejoin:round;stroke-dasharray:none;stroke-opacity:1" id="path107" d="M 335.07601,139.27848 H 304.98327"/></g></g></svg>